<svg width="24" height="24" viewBox="0 0 24 24" fill="none" xmlns="http://www.w3.org/2000/svg">
<path fill-rule="evenodd" clip-rule="evenodd" d="M7.74996 7C7.74996 4.65279 9.65275 2.75 12 2.75C14.3472 2.75 16.25 4.65279 16.25 7C16.25 9.34721 14.3472 11.25 12 11.25C9.65275 11.25 7.74996 9.34721 7.74996 7ZM12 1.25C8.82432 1.25 6.24996 3.82436 6.24996 7C6.24996 10.1756 8.82432 12.75 12 12.75C15.1756 12.75 17.75 10.1756 17.75 7C17.75 3.82436 15.1756 1.25 12 1.25ZM2.99996 21.9998C3.73711 22.138 3.73705 22.1383 3.737 22.1386L3.73722 22.1375L3.73955 22.1258C3.74187 22.1143 3.74575 22.0956 3.75131 22.0702C3.76243 22.0194 3.78027 21.9417 3.80589 21.841C3.85718 21.6394 3.93937 21.3468 4.06078 20.9936C4.30445 20.2848 4.70157 19.3453 5.31449 18.4113C6.53152 16.5568 8.57235 14.7498 12 14.7498C15.4276 14.7498 17.4684 16.5568 18.6854 18.4113C19.2983 19.3453 19.6955 20.2848 19.9391 20.9936C20.0605 21.3468 20.1427 21.6394 20.194 21.841C20.2196 21.9417 20.2375 22.0194 20.2486 22.0702C20.2542 22.0956 20.258 22.1143 20.2604 22.1258L20.2627 22.1375L20.2629 22.1386C20.2629 22.1383 20.2628 22.138 21 21.9998C21.7371 21.8616 21.737 21.8612 21.737 21.8608L21.7368 21.8599L21.7363 21.8575L21.735 21.8505L21.7305 21.8279C21.7267 21.8091 21.7212 21.7829 21.714 21.7497C21.6994 21.6833 21.6777 21.5891 21.6477 21.4711C21.5877 21.2351 21.4941 20.9028 21.3577 20.506C21.0857 19.7148 20.6391 18.6543 19.9395 17.5883C18.5315 15.4429 16.0724 13.2498 12 13.2498C7.92756 13.2498 5.46839 15.4429 4.06042 17.5883C3.36084 18.6543 2.91422 19.7148 2.64225 20.506C2.50585 20.9028 2.41226 21.2351 2.35222 21.4711C2.32218 21.5891 2.30047 21.6833 2.28596 21.7497C2.2787 21.7829 2.27324 21.8091 2.26943 21.8279L2.26493 21.8505L2.26358 21.8575L2.26312 21.8599L2.26294 21.8608C2.26287 21.8612 2.2628 21.8616 2.99996 21.9998Z" fill="white"/>
</svg>
